G04 #@! TF.GenerationSoftware,KiCad,Pcbnew,(6.0.0-rc1-dev-1481-g5e705347b)*
G04 #@! TF.CreationDate,2019-02-23T13:38:53+00:00
G04 #@! TF.ProjectId,qUarkNano_9250,71556172-6b4e-4616-9e6f-5f393235302e,rev?*
G04 #@! TF.SameCoordinates,Original*
G04 #@! TF.FileFunction,Profile,NP*
%FSLAX46Y46*%
G04 Gerber Fmt 4.6, Leading zero omitted, Abs format (unit mm)*
G04 Created by KiCad (PCBNEW (6.0.0-rc1-dev-1481-g5e705347b)) date 23/02/2019 13:38:53*
%MOMM*%
%LPD*%
G04 APERTURE LIST*
%ADD10C,0.100000*%
G04 APERTURE END LIST*
D10*
X155854110Y-85965865D02*
X155685729Y-85920757D01*
X156378096Y-86405547D02*
X156278132Y-86262763D01*
X135670050Y-85965865D02*
X135512084Y-86039527D01*
X156451777Y-115247577D02*
X156496886Y-115079196D01*
X156512088Y-114905551D02*
X156512088Y-114625551D01*
X156512088Y-114625551D02*
X156512088Y-86905559D01*
X135146064Y-86405547D02*
X135072383Y-86563533D01*
X135072383Y-86563533D02*
X135027274Y-86731914D01*
X155317083Y-115905555D02*
X155512084Y-115905555D01*
X135369300Y-86139510D02*
X135246028Y-86262763D01*
X156451777Y-86563533D02*
X156378096Y-86405547D01*
X136012076Y-85905555D02*
X135838431Y-85920757D01*
X155512084Y-115905555D02*
X155685729Y-115890353D01*
X156154860Y-86139510D02*
X156012076Y-86039527D01*
X156512088Y-86905559D02*
X156496886Y-86731914D01*
X156012076Y-115771583D02*
X156154860Y-115671600D01*
X156012076Y-86039527D02*
X155854110Y-85965865D01*
X135012072Y-87185559D02*
X135012072Y-114905551D01*
X135246028Y-86262763D02*
X135146064Y-86405547D01*
X156496886Y-115079196D02*
X156512088Y-114905551D01*
X135246028Y-115548347D02*
X135369300Y-115671600D01*
X156154860Y-115671600D02*
X156278132Y-115548347D01*
X135369300Y-115671600D02*
X135512084Y-115771583D01*
X135838431Y-85920757D02*
X135670050Y-85965865D01*
X135027274Y-86731914D02*
X135012072Y-86905559D01*
X135670050Y-115845245D02*
X135838431Y-115890353D01*
X155685729Y-85920757D02*
X155512084Y-85905555D01*
X135027274Y-115079196D02*
X135072383Y-115247577D01*
X156278132Y-86262763D02*
X156154860Y-86139510D01*
X135838431Y-115890353D02*
X136012076Y-115905555D01*
X135512084Y-115771583D02*
X135670050Y-115845245D01*
X155512084Y-85905555D02*
X136207077Y-85905555D01*
X135072383Y-115247577D02*
X135146064Y-115405563D01*
X136207077Y-85905555D02*
X136012076Y-85905555D01*
X135146064Y-115405563D02*
X135246028Y-115548347D01*
X156496886Y-86731914D02*
X156451777Y-86563533D01*
X155854110Y-115845245D02*
X156012076Y-115771583D01*
X156378096Y-115405563D02*
X156451777Y-115247577D01*
X135012072Y-86905559D02*
X135012072Y-87185559D01*
X135512084Y-86039527D02*
X135369300Y-86139510D01*
X156278132Y-115548347D02*
X156378096Y-115405563D01*
X135012224Y-114907288D02*
X135027274Y-115079196D01*
X155685729Y-115890353D02*
X155854110Y-115845245D01*
X136012076Y-115905555D02*
X155317083Y-115905555D01*
M02*
