G04 #@! TF.GenerationSoftware,KiCad,Pcbnew,(6.0.0-rc1-dev-1481-g5e705347b)*
G04 #@! TF.CreationDate,2019-02-23T13:38:53+00:00
G04 #@! TF.ProjectId,qUarkNano_9250,71556172-6b4e-4616-9e6f-5f393235302e,rev?*
G04 #@! TF.SameCoordinates,Original*
G04 #@! TF.FileFunction,Paste,Top*
G04 #@! TF.FilePolarity,Positive*
%FSLAX46Y46*%
G04 Gerber Fmt 4.6, Leading zero omitted, Abs format (unit mm)*
G04 Created by KiCad (PCBNEW (6.0.0-rc1-dev-1481-g5e705347b)) date 23/02/2019 13:38:53*
%MOMM*%
%LPD*%
G04 APERTURE LIST*
%ADD10R,0.756000X0.522000*%
%ADD11R,0.273600X0.522000*%
%ADD12R,0.450000X0.540000*%
%ADD13C,0.100000*%
%ADD14C,0.180000*%
%ADD15R,0.360000X0.540000*%
%ADD16R,0.540000X0.450000*%
%ADD17R,0.495000X0.495000*%
%ADD18R,0.225000X0.900000*%
%ADD19R,0.900000X0.225000*%
%ADD20R,1.440000X0.360000*%
%ADD21R,0.720000X0.720000*%
%ADD22R,0.540000X0.360000*%
%ADD23R,0.675000X0.720000*%
%ADD24R,0.720000X0.675000*%
%ADD25R,0.954000X0.585000*%
%ADD26R,0.450000X0.315000*%
%ADD27R,0.900000X1.125000*%
%ADD28R,0.225000X0.450000*%
%ADD29R,0.225000X0.135000*%
G04 APERTURE END LIST*
D10*
X141618420Y-92671900D03*
D11*
X142398396Y-92671900D03*
D10*
X149588024Y-107530900D03*
D11*
X150368000Y-107530900D03*
D12*
X150070801Y-88935201D03*
X150070801Y-90035201D03*
X152920801Y-93776800D03*
X152920801Y-92676800D03*
D13*
G36*
X151770212Y-88187918D02*
G01*
X151774580Y-88188566D01*
X151778864Y-88189639D01*
X151783022Y-88191126D01*
X151787014Y-88193015D01*
X151790802Y-88195285D01*
X151794349Y-88197916D01*
X151797621Y-88200881D01*
X151800586Y-88204153D01*
X151803217Y-88207700D01*
X151805487Y-88211488D01*
X151807376Y-88215480D01*
X151808863Y-88219638D01*
X151809936Y-88223922D01*
X151810584Y-88228290D01*
X151810801Y-88232701D01*
X151810801Y-88637701D01*
X151810584Y-88642112D01*
X151809936Y-88646480D01*
X151808863Y-88650764D01*
X151807376Y-88654922D01*
X151805487Y-88658914D01*
X151803217Y-88662702D01*
X151800586Y-88666249D01*
X151797621Y-88669521D01*
X151794349Y-88672486D01*
X151790802Y-88675117D01*
X151787014Y-88677387D01*
X151783022Y-88679276D01*
X151778864Y-88680763D01*
X151774580Y-88681836D01*
X151770212Y-88682484D01*
X151765801Y-88682701D01*
X151675801Y-88682701D01*
X151671390Y-88682484D01*
X151667022Y-88681836D01*
X151662738Y-88680763D01*
X151658580Y-88679276D01*
X151654588Y-88677387D01*
X151650800Y-88675117D01*
X151647253Y-88672486D01*
X151643981Y-88669521D01*
X151641016Y-88666249D01*
X151638385Y-88662702D01*
X151636115Y-88658914D01*
X151634226Y-88654922D01*
X151632739Y-88650764D01*
X151631666Y-88646480D01*
X151631018Y-88642112D01*
X151630801Y-88637701D01*
X151630801Y-88232701D01*
X151631018Y-88228290D01*
X151631666Y-88223922D01*
X151632739Y-88219638D01*
X151634226Y-88215480D01*
X151636115Y-88211488D01*
X151638385Y-88207700D01*
X151641016Y-88204153D01*
X151643981Y-88200881D01*
X151647253Y-88197916D01*
X151650800Y-88195285D01*
X151654588Y-88193015D01*
X151658580Y-88191126D01*
X151662738Y-88189639D01*
X151667022Y-88188566D01*
X151671390Y-88187918D01*
X151675801Y-88187701D01*
X151765801Y-88187701D01*
X151770212Y-88187918D01*
X151770212Y-88187918D01*
G37*
D14*
X151720801Y-88435201D03*
D13*
G36*
X152170212Y-88187918D02*
G01*
X152174580Y-88188566D01*
X152178864Y-88189639D01*
X152183022Y-88191126D01*
X152187014Y-88193015D01*
X152190802Y-88195285D01*
X152194349Y-88197916D01*
X152197621Y-88200881D01*
X152200586Y-88204153D01*
X152203217Y-88207700D01*
X152205487Y-88211488D01*
X152207376Y-88215480D01*
X152208863Y-88219638D01*
X152209936Y-88223922D01*
X152210584Y-88228290D01*
X152210801Y-88232701D01*
X152210801Y-88637701D01*
X152210584Y-88642112D01*
X152209936Y-88646480D01*
X152208863Y-88650764D01*
X152207376Y-88654922D01*
X152205487Y-88658914D01*
X152203217Y-88662702D01*
X152200586Y-88666249D01*
X152197621Y-88669521D01*
X152194349Y-88672486D01*
X152190802Y-88675117D01*
X152187014Y-88677387D01*
X152183022Y-88679276D01*
X152178864Y-88680763D01*
X152174580Y-88681836D01*
X152170212Y-88682484D01*
X152165801Y-88682701D01*
X152075801Y-88682701D01*
X152071390Y-88682484D01*
X152067022Y-88681836D01*
X152062738Y-88680763D01*
X152058580Y-88679276D01*
X152054588Y-88677387D01*
X152050800Y-88675117D01*
X152047253Y-88672486D01*
X152043981Y-88669521D01*
X152041016Y-88666249D01*
X152038385Y-88662702D01*
X152036115Y-88658914D01*
X152034226Y-88654922D01*
X152032739Y-88650764D01*
X152031666Y-88646480D01*
X152031018Y-88642112D01*
X152030801Y-88637701D01*
X152030801Y-88232701D01*
X152031018Y-88228290D01*
X152031666Y-88223922D01*
X152032739Y-88219638D01*
X152034226Y-88215480D01*
X152036115Y-88211488D01*
X152038385Y-88207700D01*
X152041016Y-88204153D01*
X152043981Y-88200881D01*
X152047253Y-88197916D01*
X152050800Y-88195285D01*
X152054588Y-88193015D01*
X152058580Y-88191126D01*
X152062738Y-88189639D01*
X152067022Y-88188566D01*
X152071390Y-88187918D01*
X152075801Y-88187701D01*
X152165801Y-88187701D01*
X152170212Y-88187918D01*
X152170212Y-88187918D01*
G37*
D14*
X152120801Y-88435201D03*
D13*
G36*
X152570212Y-88187918D02*
G01*
X152574580Y-88188566D01*
X152578864Y-88189639D01*
X152583022Y-88191126D01*
X152587014Y-88193015D01*
X152590802Y-88195285D01*
X152594349Y-88197916D01*
X152597621Y-88200881D01*
X152600586Y-88204153D01*
X152603217Y-88207700D01*
X152605487Y-88211488D01*
X152607376Y-88215480D01*
X152608863Y-88219638D01*
X152609936Y-88223922D01*
X152610584Y-88228290D01*
X152610801Y-88232701D01*
X152610801Y-88637701D01*
X152610584Y-88642112D01*
X152609936Y-88646480D01*
X152608863Y-88650764D01*
X152607376Y-88654922D01*
X152605487Y-88658914D01*
X152603217Y-88662702D01*
X152600586Y-88666249D01*
X152597621Y-88669521D01*
X152594349Y-88672486D01*
X152590802Y-88675117D01*
X152587014Y-88677387D01*
X152583022Y-88679276D01*
X152578864Y-88680763D01*
X152574580Y-88681836D01*
X152570212Y-88682484D01*
X152565801Y-88682701D01*
X152475801Y-88682701D01*
X152471390Y-88682484D01*
X152467022Y-88681836D01*
X152462738Y-88680763D01*
X152458580Y-88679276D01*
X152454588Y-88677387D01*
X152450800Y-88675117D01*
X152447253Y-88672486D01*
X152443981Y-88669521D01*
X152441016Y-88666249D01*
X152438385Y-88662702D01*
X152436115Y-88658914D01*
X152434226Y-88654922D01*
X152432739Y-88650764D01*
X152431666Y-88646480D01*
X152431018Y-88642112D01*
X152430801Y-88637701D01*
X152430801Y-88232701D01*
X152431018Y-88228290D01*
X152431666Y-88223922D01*
X152432739Y-88219638D01*
X152434226Y-88215480D01*
X152436115Y-88211488D01*
X152438385Y-88207700D01*
X152441016Y-88204153D01*
X152443981Y-88200881D01*
X152447253Y-88197916D01*
X152450800Y-88195285D01*
X152454588Y-88193015D01*
X152458580Y-88191126D01*
X152462738Y-88189639D01*
X152467022Y-88188566D01*
X152471390Y-88187918D01*
X152475801Y-88187701D01*
X152565801Y-88187701D01*
X152570212Y-88187918D01*
X152570212Y-88187918D01*
G37*
D14*
X152520801Y-88435201D03*
D13*
G36*
X152970212Y-88187918D02*
G01*
X152974580Y-88188566D01*
X152978864Y-88189639D01*
X152983022Y-88191126D01*
X152987014Y-88193015D01*
X152990802Y-88195285D01*
X152994349Y-88197916D01*
X152997621Y-88200881D01*
X153000586Y-88204153D01*
X153003217Y-88207700D01*
X153005487Y-88211488D01*
X153007376Y-88215480D01*
X153008863Y-88219638D01*
X153009936Y-88223922D01*
X153010584Y-88228290D01*
X153010801Y-88232701D01*
X153010801Y-88637701D01*
X153010584Y-88642112D01*
X153009936Y-88646480D01*
X153008863Y-88650764D01*
X153007376Y-88654922D01*
X153005487Y-88658914D01*
X153003217Y-88662702D01*
X153000586Y-88666249D01*
X152997621Y-88669521D01*
X152994349Y-88672486D01*
X152990802Y-88675117D01*
X152987014Y-88677387D01*
X152983022Y-88679276D01*
X152978864Y-88680763D01*
X152974580Y-88681836D01*
X152970212Y-88682484D01*
X152965801Y-88682701D01*
X152875801Y-88682701D01*
X152871390Y-88682484D01*
X152867022Y-88681836D01*
X152862738Y-88680763D01*
X152858580Y-88679276D01*
X152854588Y-88677387D01*
X152850800Y-88675117D01*
X152847253Y-88672486D01*
X152843981Y-88669521D01*
X152841016Y-88666249D01*
X152838385Y-88662702D01*
X152836115Y-88658914D01*
X152834226Y-88654922D01*
X152832739Y-88650764D01*
X152831666Y-88646480D01*
X152831018Y-88642112D01*
X152830801Y-88637701D01*
X152830801Y-88232701D01*
X152831018Y-88228290D01*
X152831666Y-88223922D01*
X152832739Y-88219638D01*
X152834226Y-88215480D01*
X152836115Y-88211488D01*
X152838385Y-88207700D01*
X152841016Y-88204153D01*
X152843981Y-88200881D01*
X152847253Y-88197916D01*
X152850800Y-88195285D01*
X152854588Y-88193015D01*
X152858580Y-88191126D01*
X152862738Y-88189639D01*
X152867022Y-88188566D01*
X152871390Y-88187918D01*
X152875801Y-88187701D01*
X152965801Y-88187701D01*
X152970212Y-88187918D01*
X152970212Y-88187918D01*
G37*
D14*
X152920801Y-88435201D03*
D13*
G36*
X153370212Y-88187918D02*
G01*
X153374580Y-88188566D01*
X153378864Y-88189639D01*
X153383022Y-88191126D01*
X153387014Y-88193015D01*
X153390802Y-88195285D01*
X153394349Y-88197916D01*
X153397621Y-88200881D01*
X153400586Y-88204153D01*
X153403217Y-88207700D01*
X153405487Y-88211488D01*
X153407376Y-88215480D01*
X153408863Y-88219638D01*
X153409936Y-88223922D01*
X153410584Y-88228290D01*
X153410801Y-88232701D01*
X153410801Y-88637701D01*
X153410584Y-88642112D01*
X153409936Y-88646480D01*
X153408863Y-88650764D01*
X153407376Y-88654922D01*
X153405487Y-88658914D01*
X153403217Y-88662702D01*
X153400586Y-88666249D01*
X153397621Y-88669521D01*
X153394349Y-88672486D01*
X153390802Y-88675117D01*
X153387014Y-88677387D01*
X153383022Y-88679276D01*
X153378864Y-88680763D01*
X153374580Y-88681836D01*
X153370212Y-88682484D01*
X153365801Y-88682701D01*
X153275801Y-88682701D01*
X153271390Y-88682484D01*
X153267022Y-88681836D01*
X153262738Y-88680763D01*
X153258580Y-88679276D01*
X153254588Y-88677387D01*
X153250800Y-88675117D01*
X153247253Y-88672486D01*
X153243981Y-88669521D01*
X153241016Y-88666249D01*
X153238385Y-88662702D01*
X153236115Y-88658914D01*
X153234226Y-88654922D01*
X153232739Y-88650764D01*
X153231666Y-88646480D01*
X153231018Y-88642112D01*
X153230801Y-88637701D01*
X153230801Y-88232701D01*
X153231018Y-88228290D01*
X153231666Y-88223922D01*
X153232739Y-88219638D01*
X153234226Y-88215480D01*
X153236115Y-88211488D01*
X153238385Y-88207700D01*
X153241016Y-88204153D01*
X153243981Y-88200881D01*
X153247253Y-88197916D01*
X153250800Y-88195285D01*
X153254588Y-88193015D01*
X153258580Y-88191126D01*
X153262738Y-88189639D01*
X153267022Y-88188566D01*
X153271390Y-88187918D01*
X153275801Y-88187701D01*
X153365801Y-88187701D01*
X153370212Y-88187918D01*
X153370212Y-88187918D01*
G37*
D14*
X153320801Y-88435201D03*
D13*
G36*
X153770212Y-88187918D02*
G01*
X153774580Y-88188566D01*
X153778864Y-88189639D01*
X153783022Y-88191126D01*
X153787014Y-88193015D01*
X153790802Y-88195285D01*
X153794349Y-88197916D01*
X153797621Y-88200881D01*
X153800586Y-88204153D01*
X153803217Y-88207700D01*
X153805487Y-88211488D01*
X153807376Y-88215480D01*
X153808863Y-88219638D01*
X153809936Y-88223922D01*
X153810584Y-88228290D01*
X153810801Y-88232701D01*
X153810801Y-88637701D01*
X153810584Y-88642112D01*
X153809936Y-88646480D01*
X153808863Y-88650764D01*
X153807376Y-88654922D01*
X153805487Y-88658914D01*
X153803217Y-88662702D01*
X153800586Y-88666249D01*
X153797621Y-88669521D01*
X153794349Y-88672486D01*
X153790802Y-88675117D01*
X153787014Y-88677387D01*
X153783022Y-88679276D01*
X153778864Y-88680763D01*
X153774580Y-88681836D01*
X153770212Y-88682484D01*
X153765801Y-88682701D01*
X153675801Y-88682701D01*
X153671390Y-88682484D01*
X153667022Y-88681836D01*
X153662738Y-88680763D01*
X153658580Y-88679276D01*
X153654588Y-88677387D01*
X153650800Y-88675117D01*
X153647253Y-88672486D01*
X153643981Y-88669521D01*
X153641016Y-88666249D01*
X153638385Y-88662702D01*
X153636115Y-88658914D01*
X153634226Y-88654922D01*
X153632739Y-88650764D01*
X153631666Y-88646480D01*
X153631018Y-88642112D01*
X153630801Y-88637701D01*
X153630801Y-88232701D01*
X153631018Y-88228290D01*
X153631666Y-88223922D01*
X153632739Y-88219638D01*
X153634226Y-88215480D01*
X153636115Y-88211488D01*
X153638385Y-88207700D01*
X153641016Y-88204153D01*
X153643981Y-88200881D01*
X153647253Y-88197916D01*
X153650800Y-88195285D01*
X153654588Y-88193015D01*
X153658580Y-88191126D01*
X153662738Y-88189639D01*
X153667022Y-88188566D01*
X153671390Y-88187918D01*
X153675801Y-88187701D01*
X153765801Y-88187701D01*
X153770212Y-88187918D01*
X153770212Y-88187918D01*
G37*
D14*
X153720801Y-88435201D03*
D13*
G36*
X154427712Y-88845418D02*
G01*
X154432080Y-88846066D01*
X154436364Y-88847139D01*
X154440522Y-88848626D01*
X154444514Y-88850515D01*
X154448302Y-88852785D01*
X154451849Y-88855416D01*
X154455121Y-88858381D01*
X154458086Y-88861653D01*
X154460717Y-88865200D01*
X154462987Y-88868988D01*
X154464876Y-88872980D01*
X154466363Y-88877138D01*
X154467436Y-88881422D01*
X154468084Y-88885790D01*
X154468301Y-88890201D01*
X154468301Y-88980201D01*
X154468084Y-88984612D01*
X154467436Y-88988980D01*
X154466363Y-88993264D01*
X154464876Y-88997422D01*
X154462987Y-89001414D01*
X154460717Y-89005202D01*
X154458086Y-89008749D01*
X154455121Y-89012021D01*
X154451849Y-89014986D01*
X154448302Y-89017617D01*
X154444514Y-89019887D01*
X154440522Y-89021776D01*
X154436364Y-89023263D01*
X154432080Y-89024336D01*
X154427712Y-89024984D01*
X154423301Y-89025201D01*
X154018301Y-89025201D01*
X154013890Y-89024984D01*
X154009522Y-89024336D01*
X154005238Y-89023263D01*
X154001080Y-89021776D01*
X153997088Y-89019887D01*
X153993300Y-89017617D01*
X153989753Y-89014986D01*
X153986481Y-89012021D01*
X153983516Y-89008749D01*
X153980885Y-89005202D01*
X153978615Y-89001414D01*
X153976726Y-88997422D01*
X153975239Y-88993264D01*
X153974166Y-88988980D01*
X153973518Y-88984612D01*
X153973301Y-88980201D01*
X153973301Y-88890201D01*
X153973518Y-88885790D01*
X153974166Y-88881422D01*
X153975239Y-88877138D01*
X153976726Y-88872980D01*
X153978615Y-88868988D01*
X153980885Y-88865200D01*
X153983516Y-88861653D01*
X153986481Y-88858381D01*
X153989753Y-88855416D01*
X153993300Y-88852785D01*
X153997088Y-88850515D01*
X154001080Y-88848626D01*
X154005238Y-88847139D01*
X154009522Y-88846066D01*
X154013890Y-88845418D01*
X154018301Y-88845201D01*
X154423301Y-88845201D01*
X154427712Y-88845418D01*
X154427712Y-88845418D01*
G37*
D14*
X154220801Y-88935201D03*
D13*
G36*
X154427712Y-89245418D02*
G01*
X154432080Y-89246066D01*
X154436364Y-89247139D01*
X154440522Y-89248626D01*
X154444514Y-89250515D01*
X154448302Y-89252785D01*
X154451849Y-89255416D01*
X154455121Y-89258381D01*
X154458086Y-89261653D01*
X154460717Y-89265200D01*
X154462987Y-89268988D01*
X154464876Y-89272980D01*
X154466363Y-89277138D01*
X154467436Y-89281422D01*
X154468084Y-89285790D01*
X154468301Y-89290201D01*
X154468301Y-89380201D01*
X154468084Y-89384612D01*
X154467436Y-89388980D01*
X154466363Y-89393264D01*
X154464876Y-89397422D01*
X154462987Y-89401414D01*
X154460717Y-89405202D01*
X154458086Y-89408749D01*
X154455121Y-89412021D01*
X154451849Y-89414986D01*
X154448302Y-89417617D01*
X154444514Y-89419887D01*
X154440522Y-89421776D01*
X154436364Y-89423263D01*
X154432080Y-89424336D01*
X154427712Y-89424984D01*
X154423301Y-89425201D01*
X154018301Y-89425201D01*
X154013890Y-89424984D01*
X154009522Y-89424336D01*
X154005238Y-89423263D01*
X154001080Y-89421776D01*
X153997088Y-89419887D01*
X153993300Y-89417617D01*
X153989753Y-89414986D01*
X153986481Y-89412021D01*
X153983516Y-89408749D01*
X153980885Y-89405202D01*
X153978615Y-89401414D01*
X153976726Y-89397422D01*
X153975239Y-89393264D01*
X153974166Y-89388980D01*
X153973518Y-89384612D01*
X153973301Y-89380201D01*
X153973301Y-89290201D01*
X153973518Y-89285790D01*
X153974166Y-89281422D01*
X153975239Y-89277138D01*
X153976726Y-89272980D01*
X153978615Y-89268988D01*
X153980885Y-89265200D01*
X153983516Y-89261653D01*
X153986481Y-89258381D01*
X153989753Y-89255416D01*
X153993300Y-89252785D01*
X153997088Y-89250515D01*
X154001080Y-89248626D01*
X154005238Y-89247139D01*
X154009522Y-89246066D01*
X154013890Y-89245418D01*
X154018301Y-89245201D01*
X154423301Y-89245201D01*
X154427712Y-89245418D01*
X154427712Y-89245418D01*
G37*
D14*
X154220801Y-89335201D03*
D13*
G36*
X154427712Y-89645418D02*
G01*
X154432080Y-89646066D01*
X154436364Y-89647139D01*
X154440522Y-89648626D01*
X154444514Y-89650515D01*
X154448302Y-89652785D01*
X154451849Y-89655416D01*
X154455121Y-89658381D01*
X154458086Y-89661653D01*
X154460717Y-89665200D01*
X154462987Y-89668988D01*
X154464876Y-89672980D01*
X154466363Y-89677138D01*
X154467436Y-89681422D01*
X154468084Y-89685790D01*
X154468301Y-89690201D01*
X154468301Y-89780201D01*
X154468084Y-89784612D01*
X154467436Y-89788980D01*
X154466363Y-89793264D01*
X154464876Y-89797422D01*
X154462987Y-89801414D01*
X154460717Y-89805202D01*
X154458086Y-89808749D01*
X154455121Y-89812021D01*
X154451849Y-89814986D01*
X154448302Y-89817617D01*
X154444514Y-89819887D01*
X154440522Y-89821776D01*
X154436364Y-89823263D01*
X154432080Y-89824336D01*
X154427712Y-89824984D01*
X154423301Y-89825201D01*
X154018301Y-89825201D01*
X154013890Y-89824984D01*
X154009522Y-89824336D01*
X154005238Y-89823263D01*
X154001080Y-89821776D01*
X153997088Y-89819887D01*
X153993300Y-89817617D01*
X153989753Y-89814986D01*
X153986481Y-89812021D01*
X153983516Y-89808749D01*
X153980885Y-89805202D01*
X153978615Y-89801414D01*
X153976726Y-89797422D01*
X153975239Y-89793264D01*
X153974166Y-89788980D01*
X153973518Y-89784612D01*
X153973301Y-89780201D01*
X153973301Y-89690201D01*
X153973518Y-89685790D01*
X153974166Y-89681422D01*
X153975239Y-89677138D01*
X153976726Y-89672980D01*
X153978615Y-89668988D01*
X153980885Y-89665200D01*
X153983516Y-89661653D01*
X153986481Y-89658381D01*
X153989753Y-89655416D01*
X153993300Y-89652785D01*
X153997088Y-89650515D01*
X154001080Y-89648626D01*
X154005238Y-89647139D01*
X154009522Y-89646066D01*
X154013890Y-89645418D01*
X154018301Y-89645201D01*
X154423301Y-89645201D01*
X154427712Y-89645418D01*
X154427712Y-89645418D01*
G37*
D14*
X154220801Y-89735201D03*
D13*
G36*
X154427712Y-90045418D02*
G01*
X154432080Y-90046066D01*
X154436364Y-90047139D01*
X154440522Y-90048626D01*
X154444514Y-90050515D01*
X154448302Y-90052785D01*
X154451849Y-90055416D01*
X154455121Y-90058381D01*
X154458086Y-90061653D01*
X154460717Y-90065200D01*
X154462987Y-90068988D01*
X154464876Y-90072980D01*
X154466363Y-90077138D01*
X154467436Y-90081422D01*
X154468084Y-90085790D01*
X154468301Y-90090201D01*
X154468301Y-90180201D01*
X154468084Y-90184612D01*
X154467436Y-90188980D01*
X154466363Y-90193264D01*
X154464876Y-90197422D01*
X154462987Y-90201414D01*
X154460717Y-90205202D01*
X154458086Y-90208749D01*
X154455121Y-90212021D01*
X154451849Y-90214986D01*
X154448302Y-90217617D01*
X154444514Y-90219887D01*
X154440522Y-90221776D01*
X154436364Y-90223263D01*
X154432080Y-90224336D01*
X154427712Y-90224984D01*
X154423301Y-90225201D01*
X154018301Y-90225201D01*
X154013890Y-90224984D01*
X154009522Y-90224336D01*
X154005238Y-90223263D01*
X154001080Y-90221776D01*
X153997088Y-90219887D01*
X153993300Y-90217617D01*
X153989753Y-90214986D01*
X153986481Y-90212021D01*
X153983516Y-90208749D01*
X153980885Y-90205202D01*
X153978615Y-90201414D01*
X153976726Y-90197422D01*
X153975239Y-90193264D01*
X153974166Y-90188980D01*
X153973518Y-90184612D01*
X153973301Y-90180201D01*
X153973301Y-90090201D01*
X153973518Y-90085790D01*
X153974166Y-90081422D01*
X153975239Y-90077138D01*
X153976726Y-90072980D01*
X153978615Y-90068988D01*
X153980885Y-90065200D01*
X153983516Y-90061653D01*
X153986481Y-90058381D01*
X153989753Y-90055416D01*
X153993300Y-90052785D01*
X153997088Y-90050515D01*
X154001080Y-90048626D01*
X154005238Y-90047139D01*
X154009522Y-90046066D01*
X154013890Y-90045418D01*
X154018301Y-90045201D01*
X154423301Y-90045201D01*
X154427712Y-90045418D01*
X154427712Y-90045418D01*
G37*
D14*
X154220801Y-90135201D03*
D13*
G36*
X154427712Y-90445418D02*
G01*
X154432080Y-90446066D01*
X154436364Y-90447139D01*
X154440522Y-90448626D01*
X154444514Y-90450515D01*
X154448302Y-90452785D01*
X154451849Y-90455416D01*
X154455121Y-90458381D01*
X154458086Y-90461653D01*
X154460717Y-90465200D01*
X154462987Y-90468988D01*
X154464876Y-90472980D01*
X154466363Y-90477138D01*
X154467436Y-90481422D01*
X154468084Y-90485790D01*
X154468301Y-90490201D01*
X154468301Y-90580201D01*
X154468084Y-90584612D01*
X154467436Y-90588980D01*
X154466363Y-90593264D01*
X154464876Y-90597422D01*
X154462987Y-90601414D01*
X154460717Y-90605202D01*
X154458086Y-90608749D01*
X154455121Y-90612021D01*
X154451849Y-90614986D01*
X154448302Y-90617617D01*
X154444514Y-90619887D01*
X154440522Y-90621776D01*
X154436364Y-90623263D01*
X154432080Y-90624336D01*
X154427712Y-90624984D01*
X154423301Y-90625201D01*
X154018301Y-90625201D01*
X154013890Y-90624984D01*
X154009522Y-90624336D01*
X154005238Y-90623263D01*
X154001080Y-90621776D01*
X153997088Y-90619887D01*
X153993300Y-90617617D01*
X153989753Y-90614986D01*
X153986481Y-90612021D01*
X153983516Y-90608749D01*
X153980885Y-90605202D01*
X153978615Y-90601414D01*
X153976726Y-90597422D01*
X153975239Y-90593264D01*
X153974166Y-90588980D01*
X153973518Y-90584612D01*
X153973301Y-90580201D01*
X153973301Y-90490201D01*
X153973518Y-90485790D01*
X153974166Y-90481422D01*
X153975239Y-90477138D01*
X153976726Y-90472980D01*
X153978615Y-90468988D01*
X153980885Y-90465200D01*
X153983516Y-90461653D01*
X153986481Y-90458381D01*
X153989753Y-90455416D01*
X153993300Y-90452785D01*
X153997088Y-90450515D01*
X154001080Y-90448626D01*
X154005238Y-90447139D01*
X154009522Y-90446066D01*
X154013890Y-90445418D01*
X154018301Y-90445201D01*
X154423301Y-90445201D01*
X154427712Y-90445418D01*
X154427712Y-90445418D01*
G37*
D14*
X154220801Y-90535201D03*
D13*
G36*
X154427712Y-90845418D02*
G01*
X154432080Y-90846066D01*
X154436364Y-90847139D01*
X154440522Y-90848626D01*
X154444514Y-90850515D01*
X154448302Y-90852785D01*
X154451849Y-90855416D01*
X154455121Y-90858381D01*
X154458086Y-90861653D01*
X154460717Y-90865200D01*
X154462987Y-90868988D01*
X154464876Y-90872980D01*
X154466363Y-90877138D01*
X154467436Y-90881422D01*
X154468084Y-90885790D01*
X154468301Y-90890201D01*
X154468301Y-90980201D01*
X154468084Y-90984612D01*
X154467436Y-90988980D01*
X154466363Y-90993264D01*
X154464876Y-90997422D01*
X154462987Y-91001414D01*
X154460717Y-91005202D01*
X154458086Y-91008749D01*
X154455121Y-91012021D01*
X154451849Y-91014986D01*
X154448302Y-91017617D01*
X154444514Y-91019887D01*
X154440522Y-91021776D01*
X154436364Y-91023263D01*
X154432080Y-91024336D01*
X154427712Y-91024984D01*
X154423301Y-91025201D01*
X154018301Y-91025201D01*
X154013890Y-91024984D01*
X154009522Y-91024336D01*
X154005238Y-91023263D01*
X154001080Y-91021776D01*
X153997088Y-91019887D01*
X153993300Y-91017617D01*
X153989753Y-91014986D01*
X153986481Y-91012021D01*
X153983516Y-91008749D01*
X153980885Y-91005202D01*
X153978615Y-91001414D01*
X153976726Y-90997422D01*
X153975239Y-90993264D01*
X153974166Y-90988980D01*
X153973518Y-90984612D01*
X153973301Y-90980201D01*
X153973301Y-90890201D01*
X153973518Y-90885790D01*
X153974166Y-90881422D01*
X153975239Y-90877138D01*
X153976726Y-90872980D01*
X153978615Y-90868988D01*
X153980885Y-90865200D01*
X153983516Y-90861653D01*
X153986481Y-90858381D01*
X153989753Y-90855416D01*
X153993300Y-90852785D01*
X153997088Y-90850515D01*
X154001080Y-90848626D01*
X154005238Y-90847139D01*
X154009522Y-90846066D01*
X154013890Y-90845418D01*
X154018301Y-90845201D01*
X154423301Y-90845201D01*
X154427712Y-90845418D01*
X154427712Y-90845418D01*
G37*
D14*
X154220801Y-90935201D03*
D13*
G36*
X153770212Y-91187918D02*
G01*
X153774580Y-91188566D01*
X153778864Y-91189639D01*
X153783022Y-91191126D01*
X153787014Y-91193015D01*
X153790802Y-91195285D01*
X153794349Y-91197916D01*
X153797621Y-91200881D01*
X153800586Y-91204153D01*
X153803217Y-91207700D01*
X153805487Y-91211488D01*
X153807376Y-91215480D01*
X153808863Y-91219638D01*
X153809936Y-91223922D01*
X153810584Y-91228290D01*
X153810801Y-91232701D01*
X153810801Y-91637701D01*
X153810584Y-91642112D01*
X153809936Y-91646480D01*
X153808863Y-91650764D01*
X153807376Y-91654922D01*
X153805487Y-91658914D01*
X153803217Y-91662702D01*
X153800586Y-91666249D01*
X153797621Y-91669521D01*
X153794349Y-91672486D01*
X153790802Y-91675117D01*
X153787014Y-91677387D01*
X153783022Y-91679276D01*
X153778864Y-91680763D01*
X153774580Y-91681836D01*
X153770212Y-91682484D01*
X153765801Y-91682701D01*
X153675801Y-91682701D01*
X153671390Y-91682484D01*
X153667022Y-91681836D01*
X153662738Y-91680763D01*
X153658580Y-91679276D01*
X153654588Y-91677387D01*
X153650800Y-91675117D01*
X153647253Y-91672486D01*
X153643981Y-91669521D01*
X153641016Y-91666249D01*
X153638385Y-91662702D01*
X153636115Y-91658914D01*
X153634226Y-91654922D01*
X153632739Y-91650764D01*
X153631666Y-91646480D01*
X153631018Y-91642112D01*
X153630801Y-91637701D01*
X153630801Y-91232701D01*
X153631018Y-91228290D01*
X153631666Y-91223922D01*
X153632739Y-91219638D01*
X153634226Y-91215480D01*
X153636115Y-91211488D01*
X153638385Y-91207700D01*
X153641016Y-91204153D01*
X153643981Y-91200881D01*
X153647253Y-91197916D01*
X153650800Y-91195285D01*
X153654588Y-91193015D01*
X153658580Y-91191126D01*
X153662738Y-91189639D01*
X153667022Y-91188566D01*
X153671390Y-91187918D01*
X153675801Y-91187701D01*
X153765801Y-91187701D01*
X153770212Y-91187918D01*
X153770212Y-91187918D01*
G37*
D14*
X153720801Y-91435201D03*
D13*
G36*
X153370212Y-91187918D02*
G01*
X153374580Y-91188566D01*
X153378864Y-91189639D01*
X153383022Y-91191126D01*
X153387014Y-91193015D01*
X153390802Y-91195285D01*
X153394349Y-91197916D01*
X153397621Y-91200881D01*
X153400586Y-91204153D01*
X153403217Y-91207700D01*
X153405487Y-91211488D01*
X153407376Y-91215480D01*
X153408863Y-91219638D01*
X153409936Y-91223922D01*
X153410584Y-91228290D01*
X153410801Y-91232701D01*
X153410801Y-91637701D01*
X153410584Y-91642112D01*
X153409936Y-91646480D01*
X153408863Y-91650764D01*
X153407376Y-91654922D01*
X153405487Y-91658914D01*
X153403217Y-91662702D01*
X153400586Y-91666249D01*
X153397621Y-91669521D01*
X153394349Y-91672486D01*
X153390802Y-91675117D01*
X153387014Y-91677387D01*
X153383022Y-91679276D01*
X153378864Y-91680763D01*
X153374580Y-91681836D01*
X153370212Y-91682484D01*
X153365801Y-91682701D01*
X153275801Y-91682701D01*
X153271390Y-91682484D01*
X153267022Y-91681836D01*
X153262738Y-91680763D01*
X153258580Y-91679276D01*
X153254588Y-91677387D01*
X153250800Y-91675117D01*
X153247253Y-91672486D01*
X153243981Y-91669521D01*
X153241016Y-91666249D01*
X153238385Y-91662702D01*
X153236115Y-91658914D01*
X153234226Y-91654922D01*
X153232739Y-91650764D01*
X153231666Y-91646480D01*
X153231018Y-91642112D01*
X153230801Y-91637701D01*
X153230801Y-91232701D01*
X153231018Y-91228290D01*
X153231666Y-91223922D01*
X153232739Y-91219638D01*
X153234226Y-91215480D01*
X153236115Y-91211488D01*
X153238385Y-91207700D01*
X153241016Y-91204153D01*
X153243981Y-91200881D01*
X153247253Y-91197916D01*
X153250800Y-91195285D01*
X153254588Y-91193015D01*
X153258580Y-91191126D01*
X153262738Y-91189639D01*
X153267022Y-91188566D01*
X153271390Y-91187918D01*
X153275801Y-91187701D01*
X153365801Y-91187701D01*
X153370212Y-91187918D01*
X153370212Y-91187918D01*
G37*
D14*
X153320801Y-91435201D03*
D13*
G36*
X152970212Y-91187918D02*
G01*
X152974580Y-91188566D01*
X152978864Y-91189639D01*
X152983022Y-91191126D01*
X152987014Y-91193015D01*
X152990802Y-91195285D01*
X152994349Y-91197916D01*
X152997621Y-91200881D01*
X153000586Y-91204153D01*
X153003217Y-91207700D01*
X153005487Y-91211488D01*
X153007376Y-91215480D01*
X153008863Y-91219638D01*
X153009936Y-91223922D01*
X153010584Y-91228290D01*
X153010801Y-91232701D01*
X153010801Y-91637701D01*
X153010584Y-91642112D01*
X153009936Y-91646480D01*
X153008863Y-91650764D01*
X153007376Y-91654922D01*
X153005487Y-91658914D01*
X153003217Y-91662702D01*
X153000586Y-91666249D01*
X152997621Y-91669521D01*
X152994349Y-91672486D01*
X152990802Y-91675117D01*
X152987014Y-91677387D01*
X152983022Y-91679276D01*
X152978864Y-91680763D01*
X152974580Y-91681836D01*
X152970212Y-91682484D01*
X152965801Y-91682701D01*
X152875801Y-91682701D01*
X152871390Y-91682484D01*
X152867022Y-91681836D01*
X152862738Y-91680763D01*
X152858580Y-91679276D01*
X152854588Y-91677387D01*
X152850800Y-91675117D01*
X152847253Y-91672486D01*
X152843981Y-91669521D01*
X152841016Y-91666249D01*
X152838385Y-91662702D01*
X152836115Y-91658914D01*
X152834226Y-91654922D01*
X152832739Y-91650764D01*
X152831666Y-91646480D01*
X152831018Y-91642112D01*
X152830801Y-91637701D01*
X152830801Y-91232701D01*
X152831018Y-91228290D01*
X152831666Y-91223922D01*
X152832739Y-91219638D01*
X152834226Y-91215480D01*
X152836115Y-91211488D01*
X152838385Y-91207700D01*
X152841016Y-91204153D01*
X152843981Y-91200881D01*
X152847253Y-91197916D01*
X152850800Y-91195285D01*
X152854588Y-91193015D01*
X152858580Y-91191126D01*
X152862738Y-91189639D01*
X152867022Y-91188566D01*
X152871390Y-91187918D01*
X152875801Y-91187701D01*
X152965801Y-91187701D01*
X152970212Y-91187918D01*
X152970212Y-91187918D01*
G37*
D14*
X152920801Y-91435201D03*
D13*
G36*
X152570212Y-91187918D02*
G01*
X152574580Y-91188566D01*
X152578864Y-91189639D01*
X152583022Y-91191126D01*
X152587014Y-91193015D01*
X152590802Y-91195285D01*
X152594349Y-91197916D01*
X152597621Y-91200881D01*
X152600586Y-91204153D01*
X152603217Y-91207700D01*
X152605487Y-91211488D01*
X152607376Y-91215480D01*
X152608863Y-91219638D01*
X152609936Y-91223922D01*
X152610584Y-91228290D01*
X152610801Y-91232701D01*
X152610801Y-91637701D01*
X152610584Y-91642112D01*
X152609936Y-91646480D01*
X152608863Y-91650764D01*
X152607376Y-91654922D01*
X152605487Y-91658914D01*
X152603217Y-91662702D01*
X152600586Y-91666249D01*
X152597621Y-91669521D01*
X152594349Y-91672486D01*
X152590802Y-91675117D01*
X152587014Y-91677387D01*
X152583022Y-91679276D01*
X152578864Y-91680763D01*
X152574580Y-91681836D01*
X152570212Y-91682484D01*
X152565801Y-91682701D01*
X152475801Y-91682701D01*
X152471390Y-91682484D01*
X152467022Y-91681836D01*
X152462738Y-91680763D01*
X152458580Y-91679276D01*
X152454588Y-91677387D01*
X152450800Y-91675117D01*
X152447253Y-91672486D01*
X152443981Y-91669521D01*
X152441016Y-91666249D01*
X152438385Y-91662702D01*
X152436115Y-91658914D01*
X152434226Y-91654922D01*
X152432739Y-91650764D01*
X152431666Y-91646480D01*
X152431018Y-91642112D01*
X152430801Y-91637701D01*
X152430801Y-91232701D01*
X152431018Y-91228290D01*
X152431666Y-91223922D01*
X152432739Y-91219638D01*
X152434226Y-91215480D01*
X152436115Y-91211488D01*
X152438385Y-91207700D01*
X152441016Y-91204153D01*
X152443981Y-91200881D01*
X152447253Y-91197916D01*
X152450800Y-91195285D01*
X152454588Y-91193015D01*
X152458580Y-91191126D01*
X152462738Y-91189639D01*
X152467022Y-91188566D01*
X152471390Y-91187918D01*
X152475801Y-91187701D01*
X152565801Y-91187701D01*
X152570212Y-91187918D01*
X152570212Y-91187918D01*
G37*
D14*
X152520801Y-91435201D03*
D13*
G36*
X152170212Y-91187918D02*
G01*
X152174580Y-91188566D01*
X152178864Y-91189639D01*
X152183022Y-91191126D01*
X152187014Y-91193015D01*
X152190802Y-91195285D01*
X152194349Y-91197916D01*
X152197621Y-91200881D01*
X152200586Y-91204153D01*
X152203217Y-91207700D01*
X152205487Y-91211488D01*
X152207376Y-91215480D01*
X152208863Y-91219638D01*
X152209936Y-91223922D01*
X152210584Y-91228290D01*
X152210801Y-91232701D01*
X152210801Y-91637701D01*
X152210584Y-91642112D01*
X152209936Y-91646480D01*
X152208863Y-91650764D01*
X152207376Y-91654922D01*
X152205487Y-91658914D01*
X152203217Y-91662702D01*
X152200586Y-91666249D01*
X152197621Y-91669521D01*
X152194349Y-91672486D01*
X152190802Y-91675117D01*
X152187014Y-91677387D01*
X152183022Y-91679276D01*
X152178864Y-91680763D01*
X152174580Y-91681836D01*
X152170212Y-91682484D01*
X152165801Y-91682701D01*
X152075801Y-91682701D01*
X152071390Y-91682484D01*
X152067022Y-91681836D01*
X152062738Y-91680763D01*
X152058580Y-91679276D01*
X152054588Y-91677387D01*
X152050800Y-91675117D01*
X152047253Y-91672486D01*
X152043981Y-91669521D01*
X152041016Y-91666249D01*
X152038385Y-91662702D01*
X152036115Y-91658914D01*
X152034226Y-91654922D01*
X152032739Y-91650764D01*
X152031666Y-91646480D01*
X152031018Y-91642112D01*
X152030801Y-91637701D01*
X152030801Y-91232701D01*
X152031018Y-91228290D01*
X152031666Y-91223922D01*
X152032739Y-91219638D01*
X152034226Y-91215480D01*
X152036115Y-91211488D01*
X152038385Y-91207700D01*
X152041016Y-91204153D01*
X152043981Y-91200881D01*
X152047253Y-91197916D01*
X152050800Y-91195285D01*
X152054588Y-91193015D01*
X152058580Y-91191126D01*
X152062738Y-91189639D01*
X152067022Y-91188566D01*
X152071390Y-91187918D01*
X152075801Y-91187701D01*
X152165801Y-91187701D01*
X152170212Y-91187918D01*
X152170212Y-91187918D01*
G37*
D14*
X152120801Y-91435201D03*
D13*
G36*
X151770212Y-91187918D02*
G01*
X151774580Y-91188566D01*
X151778864Y-91189639D01*
X151783022Y-91191126D01*
X151787014Y-91193015D01*
X151790802Y-91195285D01*
X151794349Y-91197916D01*
X151797621Y-91200881D01*
X151800586Y-91204153D01*
X151803217Y-91207700D01*
X151805487Y-91211488D01*
X151807376Y-91215480D01*
X151808863Y-91219638D01*
X151809936Y-91223922D01*
X151810584Y-91228290D01*
X151810801Y-91232701D01*
X151810801Y-91637701D01*
X151810584Y-91642112D01*
X151809936Y-91646480D01*
X151808863Y-91650764D01*
X151807376Y-91654922D01*
X151805487Y-91658914D01*
X151803217Y-91662702D01*
X151800586Y-91666249D01*
X151797621Y-91669521D01*
X151794349Y-91672486D01*
X151790802Y-91675117D01*
X151787014Y-91677387D01*
X151783022Y-91679276D01*
X151778864Y-91680763D01*
X151774580Y-91681836D01*
X151770212Y-91682484D01*
X151765801Y-91682701D01*
X151675801Y-91682701D01*
X151671390Y-91682484D01*
X151667022Y-91681836D01*
X151662738Y-91680763D01*
X151658580Y-91679276D01*
X151654588Y-91677387D01*
X151650800Y-91675117D01*
X151647253Y-91672486D01*
X151643981Y-91669521D01*
X151641016Y-91666249D01*
X151638385Y-91662702D01*
X151636115Y-91658914D01*
X151634226Y-91654922D01*
X151632739Y-91650764D01*
X151631666Y-91646480D01*
X151631018Y-91642112D01*
X151630801Y-91637701D01*
X151630801Y-91232701D01*
X151631018Y-91228290D01*
X151631666Y-91223922D01*
X151632739Y-91219638D01*
X151634226Y-91215480D01*
X151636115Y-91211488D01*
X151638385Y-91207700D01*
X151641016Y-91204153D01*
X151643981Y-91200881D01*
X151647253Y-91197916D01*
X151650800Y-91195285D01*
X151654588Y-91193015D01*
X151658580Y-91191126D01*
X151662738Y-91189639D01*
X151667022Y-91188566D01*
X151671390Y-91187918D01*
X151675801Y-91187701D01*
X151765801Y-91187701D01*
X151770212Y-91187918D01*
X151770212Y-91187918D01*
G37*
D14*
X151720801Y-91435201D03*
D13*
G36*
X151427712Y-90845418D02*
G01*
X151432080Y-90846066D01*
X151436364Y-90847139D01*
X151440522Y-90848626D01*
X151444514Y-90850515D01*
X151448302Y-90852785D01*
X151451849Y-90855416D01*
X151455121Y-90858381D01*
X151458086Y-90861653D01*
X151460717Y-90865200D01*
X151462987Y-90868988D01*
X151464876Y-90872980D01*
X151466363Y-90877138D01*
X151467436Y-90881422D01*
X151468084Y-90885790D01*
X151468301Y-90890201D01*
X151468301Y-90980201D01*
X151468084Y-90984612D01*
X151467436Y-90988980D01*
X151466363Y-90993264D01*
X151464876Y-90997422D01*
X151462987Y-91001414D01*
X151460717Y-91005202D01*
X151458086Y-91008749D01*
X151455121Y-91012021D01*
X151451849Y-91014986D01*
X151448302Y-91017617D01*
X151444514Y-91019887D01*
X151440522Y-91021776D01*
X151436364Y-91023263D01*
X151432080Y-91024336D01*
X151427712Y-91024984D01*
X151423301Y-91025201D01*
X151018301Y-91025201D01*
X151013890Y-91024984D01*
X151009522Y-91024336D01*
X151005238Y-91023263D01*
X151001080Y-91021776D01*
X150997088Y-91019887D01*
X150993300Y-91017617D01*
X150989753Y-91014986D01*
X150986481Y-91012021D01*
X150983516Y-91008749D01*
X150980885Y-91005202D01*
X150978615Y-91001414D01*
X150976726Y-90997422D01*
X150975239Y-90993264D01*
X150974166Y-90988980D01*
X150973518Y-90984612D01*
X150973301Y-90980201D01*
X150973301Y-90890201D01*
X150973518Y-90885790D01*
X150974166Y-90881422D01*
X150975239Y-90877138D01*
X150976726Y-90872980D01*
X150978615Y-90868988D01*
X150980885Y-90865200D01*
X150983516Y-90861653D01*
X150986481Y-90858381D01*
X150989753Y-90855416D01*
X150993300Y-90852785D01*
X150997088Y-90850515D01*
X151001080Y-90848626D01*
X151005238Y-90847139D01*
X151009522Y-90846066D01*
X151013890Y-90845418D01*
X151018301Y-90845201D01*
X151423301Y-90845201D01*
X151427712Y-90845418D01*
X151427712Y-90845418D01*
G37*
D14*
X151220801Y-90935201D03*
D13*
G36*
X151427712Y-90445418D02*
G01*
X151432080Y-90446066D01*
X151436364Y-90447139D01*
X151440522Y-90448626D01*
X151444514Y-90450515D01*
X151448302Y-90452785D01*
X151451849Y-90455416D01*
X151455121Y-90458381D01*
X151458086Y-90461653D01*
X151460717Y-90465200D01*
X151462987Y-90468988D01*
X151464876Y-90472980D01*
X151466363Y-90477138D01*
X151467436Y-90481422D01*
X151468084Y-90485790D01*
X151468301Y-90490201D01*
X151468301Y-90580201D01*
X151468084Y-90584612D01*
X151467436Y-90588980D01*
X151466363Y-90593264D01*
X151464876Y-90597422D01*
X151462987Y-90601414D01*
X151460717Y-90605202D01*
X151458086Y-90608749D01*
X151455121Y-90612021D01*
X151451849Y-90614986D01*
X151448302Y-90617617D01*
X151444514Y-90619887D01*
X151440522Y-90621776D01*
X151436364Y-90623263D01*
X151432080Y-90624336D01*
X151427712Y-90624984D01*
X151423301Y-90625201D01*
X151018301Y-90625201D01*
X151013890Y-90624984D01*
X151009522Y-90624336D01*
X151005238Y-90623263D01*
X151001080Y-90621776D01*
X150997088Y-90619887D01*
X150993300Y-90617617D01*
X150989753Y-90614986D01*
X150986481Y-90612021D01*
X150983516Y-90608749D01*
X150980885Y-90605202D01*
X150978615Y-90601414D01*
X150976726Y-90597422D01*
X150975239Y-90593264D01*
X150974166Y-90588980D01*
X150973518Y-90584612D01*
X150973301Y-90580201D01*
X150973301Y-90490201D01*
X150973518Y-90485790D01*
X150974166Y-90481422D01*
X150975239Y-90477138D01*
X150976726Y-90472980D01*
X150978615Y-90468988D01*
X150980885Y-90465200D01*
X150983516Y-90461653D01*
X150986481Y-90458381D01*
X150989753Y-90455416D01*
X150993300Y-90452785D01*
X150997088Y-90450515D01*
X151001080Y-90448626D01*
X151005238Y-90447139D01*
X151009522Y-90446066D01*
X151013890Y-90445418D01*
X151018301Y-90445201D01*
X151423301Y-90445201D01*
X151427712Y-90445418D01*
X151427712Y-90445418D01*
G37*
D14*
X151220801Y-90535201D03*
D13*
G36*
X151427712Y-90045418D02*
G01*
X151432080Y-90046066D01*
X151436364Y-90047139D01*
X151440522Y-90048626D01*
X151444514Y-90050515D01*
X151448302Y-90052785D01*
X151451849Y-90055416D01*
X151455121Y-90058381D01*
X151458086Y-90061653D01*
X151460717Y-90065200D01*
X151462987Y-90068988D01*
X151464876Y-90072980D01*
X151466363Y-90077138D01*
X151467436Y-90081422D01*
X151468084Y-90085790D01*
X151468301Y-90090201D01*
X151468301Y-90180201D01*
X151468084Y-90184612D01*
X151467436Y-90188980D01*
X151466363Y-90193264D01*
X151464876Y-90197422D01*
X151462987Y-90201414D01*
X151460717Y-90205202D01*
X151458086Y-90208749D01*
X151455121Y-90212021D01*
X151451849Y-90214986D01*
X151448302Y-90217617D01*
X151444514Y-90219887D01*
X151440522Y-90221776D01*
X151436364Y-90223263D01*
X151432080Y-90224336D01*
X151427712Y-90224984D01*
X151423301Y-90225201D01*
X151018301Y-90225201D01*
X151013890Y-90224984D01*
X151009522Y-90224336D01*
X151005238Y-90223263D01*
X151001080Y-90221776D01*
X150997088Y-90219887D01*
X150993300Y-90217617D01*
X150989753Y-90214986D01*
X150986481Y-90212021D01*
X150983516Y-90208749D01*
X150980885Y-90205202D01*
X150978615Y-90201414D01*
X150976726Y-90197422D01*
X150975239Y-90193264D01*
X150974166Y-90188980D01*
X150973518Y-90184612D01*
X150973301Y-90180201D01*
X150973301Y-90090201D01*
X150973518Y-90085790D01*
X150974166Y-90081422D01*
X150975239Y-90077138D01*
X150976726Y-90072980D01*
X150978615Y-90068988D01*
X150980885Y-90065200D01*
X150983516Y-90061653D01*
X150986481Y-90058381D01*
X150989753Y-90055416D01*
X150993300Y-90052785D01*
X150997088Y-90050515D01*
X151001080Y-90048626D01*
X151005238Y-90047139D01*
X151009522Y-90046066D01*
X151013890Y-90045418D01*
X151018301Y-90045201D01*
X151423301Y-90045201D01*
X151427712Y-90045418D01*
X151427712Y-90045418D01*
G37*
D14*
X151220801Y-90135201D03*
D13*
G36*
X151427712Y-89645418D02*
G01*
X151432080Y-89646066D01*
X151436364Y-89647139D01*
X151440522Y-89648626D01*
X151444514Y-89650515D01*
X151448302Y-89652785D01*
X151451849Y-89655416D01*
X151455121Y-89658381D01*
X151458086Y-89661653D01*
X151460717Y-89665200D01*
X151462987Y-89668988D01*
X151464876Y-89672980D01*
X151466363Y-89677138D01*
X151467436Y-89681422D01*
X151468084Y-89685790D01*
X151468301Y-89690201D01*
X151468301Y-89780201D01*
X151468084Y-89784612D01*
X151467436Y-89788980D01*
X151466363Y-89793264D01*
X151464876Y-89797422D01*
X151462987Y-89801414D01*
X151460717Y-89805202D01*
X151458086Y-89808749D01*
X151455121Y-89812021D01*
X151451849Y-89814986D01*
X151448302Y-89817617D01*
X151444514Y-89819887D01*
X151440522Y-89821776D01*
X151436364Y-89823263D01*
X151432080Y-89824336D01*
X151427712Y-89824984D01*
X151423301Y-89825201D01*
X151018301Y-89825201D01*
X151013890Y-89824984D01*
X151009522Y-89824336D01*
X151005238Y-89823263D01*
X151001080Y-89821776D01*
X150997088Y-89819887D01*
X150993300Y-89817617D01*
X150989753Y-89814986D01*
X150986481Y-89812021D01*
X150983516Y-89808749D01*
X150980885Y-89805202D01*
X150978615Y-89801414D01*
X150976726Y-89797422D01*
X150975239Y-89793264D01*
X150974166Y-89788980D01*
X150973518Y-89784612D01*
X150973301Y-89780201D01*
X150973301Y-89690201D01*
X150973518Y-89685790D01*
X150974166Y-89681422D01*
X150975239Y-89677138D01*
X150976726Y-89672980D01*
X150978615Y-89668988D01*
X150980885Y-89665200D01*
X150983516Y-89661653D01*
X150986481Y-89658381D01*
X150989753Y-89655416D01*
X150993300Y-89652785D01*
X150997088Y-89650515D01*
X151001080Y-89648626D01*
X151005238Y-89647139D01*
X151009522Y-89646066D01*
X151013890Y-89645418D01*
X151018301Y-89645201D01*
X151423301Y-89645201D01*
X151427712Y-89645418D01*
X151427712Y-89645418D01*
G37*
D14*
X151220801Y-89735201D03*
D13*
G36*
X151427712Y-89245418D02*
G01*
X151432080Y-89246066D01*
X151436364Y-89247139D01*
X151440522Y-89248626D01*
X151444514Y-89250515D01*
X151448302Y-89252785D01*
X151451849Y-89255416D01*
X151455121Y-89258381D01*
X151458086Y-89261653D01*
X151460717Y-89265200D01*
X151462987Y-89268988D01*
X151464876Y-89272980D01*
X151466363Y-89277138D01*
X151467436Y-89281422D01*
X151468084Y-89285790D01*
X151468301Y-89290201D01*
X151468301Y-89380201D01*
X151468084Y-89384612D01*
X151467436Y-89388980D01*
X151466363Y-89393264D01*
X151464876Y-89397422D01*
X151462987Y-89401414D01*
X151460717Y-89405202D01*
X151458086Y-89408749D01*
X151455121Y-89412021D01*
X151451849Y-89414986D01*
X151448302Y-89417617D01*
X151444514Y-89419887D01*
X151440522Y-89421776D01*
X151436364Y-89423263D01*
X151432080Y-89424336D01*
X151427712Y-89424984D01*
X151423301Y-89425201D01*
X151018301Y-89425201D01*
X151013890Y-89424984D01*
X151009522Y-89424336D01*
X151005238Y-89423263D01*
X151001080Y-89421776D01*
X150997088Y-89419887D01*
X150993300Y-89417617D01*
X150989753Y-89414986D01*
X150986481Y-89412021D01*
X150983516Y-89408749D01*
X150980885Y-89405202D01*
X150978615Y-89401414D01*
X150976726Y-89397422D01*
X150975239Y-89393264D01*
X150974166Y-89388980D01*
X150973518Y-89384612D01*
X150973301Y-89380201D01*
X150973301Y-89290201D01*
X150973518Y-89285790D01*
X150974166Y-89281422D01*
X150975239Y-89277138D01*
X150976726Y-89272980D01*
X150978615Y-89268988D01*
X150980885Y-89265200D01*
X150983516Y-89261653D01*
X150986481Y-89258381D01*
X150989753Y-89255416D01*
X150993300Y-89252785D01*
X150997088Y-89250515D01*
X151001080Y-89248626D01*
X151005238Y-89247139D01*
X151009522Y-89246066D01*
X151013890Y-89245418D01*
X151018301Y-89245201D01*
X151423301Y-89245201D01*
X151427712Y-89245418D01*
X151427712Y-89245418D01*
G37*
D14*
X151220801Y-89335201D03*
D13*
G36*
X151427712Y-88845418D02*
G01*
X151432080Y-88846066D01*
X151436364Y-88847139D01*
X151440522Y-88848626D01*
X151444514Y-88850515D01*
X151448302Y-88852785D01*
X151451849Y-88855416D01*
X151455121Y-88858381D01*
X151458086Y-88861653D01*
X151460717Y-88865200D01*
X151462987Y-88868988D01*
X151464876Y-88872980D01*
X151466363Y-88877138D01*
X151467436Y-88881422D01*
X151468084Y-88885790D01*
X151468301Y-88890201D01*
X151468301Y-88980201D01*
X151468084Y-88984612D01*
X151467436Y-88988980D01*
X151466363Y-88993264D01*
X151464876Y-88997422D01*
X151462987Y-89001414D01*
X151460717Y-89005202D01*
X151458086Y-89008749D01*
X151455121Y-89012021D01*
X151451849Y-89014986D01*
X151448302Y-89017617D01*
X151444514Y-89019887D01*
X151440522Y-89021776D01*
X151436364Y-89023263D01*
X151432080Y-89024336D01*
X151427712Y-89024984D01*
X151423301Y-89025201D01*
X151018301Y-89025201D01*
X151013890Y-89024984D01*
X151009522Y-89024336D01*
X151005238Y-89023263D01*
X151001080Y-89021776D01*
X150997088Y-89019887D01*
X150993300Y-89017617D01*
X150989753Y-89014986D01*
X150986481Y-89012021D01*
X150983516Y-89008749D01*
X150980885Y-89005202D01*
X150978615Y-89001414D01*
X150976726Y-88997422D01*
X150975239Y-88993264D01*
X150974166Y-88988980D01*
X150973518Y-88984612D01*
X150973301Y-88980201D01*
X150973301Y-88890201D01*
X150973518Y-88885790D01*
X150974166Y-88881422D01*
X150975239Y-88877138D01*
X150976726Y-88872980D01*
X150978615Y-88868988D01*
X150980885Y-88865200D01*
X150983516Y-88861653D01*
X150986481Y-88858381D01*
X150989753Y-88855416D01*
X150993300Y-88852785D01*
X150997088Y-88850515D01*
X151001080Y-88848626D01*
X151005238Y-88847139D01*
X151009522Y-88846066D01*
X151013890Y-88845418D01*
X151018301Y-88845201D01*
X151423301Y-88845201D01*
X151427712Y-88845418D01*
X151427712Y-88845418D01*
G37*
D14*
X151220801Y-88935201D03*
D15*
X137229000Y-92456000D03*
X136329000Y-92456000D03*
X137864000Y-94615000D03*
X136964000Y-94615000D03*
D16*
X152124500Y-96862900D03*
X151024500Y-96862900D03*
D17*
X153395100Y-94824200D03*
X153395100Y-95574200D03*
X156045100Y-95574200D03*
X156045100Y-94824200D03*
D16*
X139111900Y-92671900D03*
X140211900Y-92671900D03*
D12*
X136207500Y-104410600D03*
X136207500Y-103310600D03*
X155520801Y-91035201D03*
X155520801Y-92135201D03*
D18*
X147194200Y-105765400D03*
X146694200Y-105765400D03*
X146194200Y-105765400D03*
X145694200Y-105765400D03*
X145194200Y-105765400D03*
X144694200Y-105765400D03*
X144194200Y-105765400D03*
X143694200Y-105765400D03*
X143194200Y-105765400D03*
X142694200Y-105765400D03*
X142194200Y-105765400D03*
X141694200Y-105765400D03*
X141194200Y-105765400D03*
X140694200Y-105765400D03*
X140194200Y-105765400D03*
X139694200Y-105765400D03*
D19*
X137744200Y-103815400D03*
X137744200Y-103315400D03*
X137744200Y-102815400D03*
X137744200Y-102315400D03*
X137744200Y-101815400D03*
X137744200Y-101315400D03*
X137744200Y-100815400D03*
X137744200Y-100315400D03*
X137744200Y-99815400D03*
X137744200Y-99315400D03*
X137744200Y-98815400D03*
X137744200Y-98315400D03*
X137744200Y-97815400D03*
X137744200Y-97315400D03*
X137744200Y-96815400D03*
X137744200Y-96315400D03*
D18*
X139694200Y-94365400D03*
X140194200Y-94365400D03*
X140694200Y-94365400D03*
X141194200Y-94365400D03*
X141694200Y-94365400D03*
X142194200Y-94365400D03*
X142694200Y-94365400D03*
X143194200Y-94365400D03*
X143694200Y-94365400D03*
X144194200Y-94365400D03*
X144694200Y-94365400D03*
X145194200Y-94365400D03*
X145694200Y-94365400D03*
X146194200Y-94365400D03*
X146694200Y-94365400D03*
X147194200Y-94365400D03*
D19*
X149144200Y-96315400D03*
X149144200Y-96815400D03*
X149144200Y-97315400D03*
X149144200Y-97815400D03*
X149144200Y-98315400D03*
X149144200Y-98815400D03*
X149144200Y-99315400D03*
X149144200Y-99815400D03*
X149144200Y-100315400D03*
X149144200Y-100815400D03*
X149144200Y-101315400D03*
X149144200Y-101815400D03*
X149144200Y-102315400D03*
X149144200Y-102815400D03*
X149144200Y-103315400D03*
X149144200Y-103815400D03*
D20*
X151536400Y-99225100D03*
X151536400Y-100325056D03*
X151536400Y-101425126D03*
D21*
X153428700Y-102133300D03*
X153428700Y-100533300D03*
X153492200Y-98805800D03*
X153492200Y-97205800D03*
X151745801Y-86785201D03*
X153345801Y-86785201D03*
D15*
X150280800Y-103555800D03*
X151180800Y-103555800D03*
X151168100Y-102501700D03*
X150268100Y-102501700D03*
D22*
X155045801Y-86785201D03*
X155045801Y-87685201D03*
D15*
X151130000Y-98094800D03*
X152030000Y-98094800D03*
D23*
X155384500Y-104799000D03*
X155384500Y-106299000D03*
D16*
X155930600Y-107505500D03*
X154830600Y-107505500D03*
D24*
X152271600Y-103644700D03*
X153771600Y-103644700D03*
D25*
X153680300Y-105049100D03*
X153680300Y-106949100D03*
X151480300Y-106949100D03*
X151480300Y-105999100D03*
X151480300Y-105049100D03*
D16*
X148276400Y-91046300D03*
X147176400Y-91046300D03*
D26*
X146964600Y-90075300D03*
X148564600Y-88125300D03*
X148564600Y-88775300D03*
X148564600Y-89425300D03*
X146964600Y-88125300D03*
X146964600Y-88775300D03*
X146964600Y-89425300D03*
X148564600Y-90075300D03*
D15*
X155821800Y-93827600D03*
X154921800Y-93827600D03*
D22*
X135775700Y-94896100D03*
X135775700Y-95796100D03*
X136436100Y-97420000D03*
X136436100Y-96520000D03*
D24*
X146899500Y-92925900D03*
X148399500Y-92925900D03*
D16*
X146080300Y-107238800D03*
X147180300Y-107238800D03*
D12*
X137261600Y-105079800D03*
X137261600Y-106179800D03*
D16*
X137372000Y-93599000D03*
X138472000Y-93599000D03*
D12*
X149174200Y-104978200D03*
X149174200Y-106078200D03*
D23*
X136448800Y-99034600D03*
X136448800Y-100534600D03*
D16*
X152124500Y-95719900D03*
X151024500Y-95719900D03*
D27*
X149685500Y-94195900D03*
X151685500Y-94195900D03*
D28*
X138599000Y-107526308D03*
D29*
X137949004Y-107706294D03*
X137949000Y-107356308D03*
D22*
X138442700Y-105651300D03*
X138442700Y-106551300D03*
M02*
